# Blender v2.90.0 OBJ File: 'Khung_anh_ngang.blend'
# www.blender.org
mtllib HUS.mtl
o Cube
v -0.500000 0.507333 -0.036600
v 0.500000 0.507333 -0.036600
v -0.500000 -0.492667 -0.036600
v 0.500000 -0.492667 -0.036600
v 0.500000 0.507333 0.023400
v 0.500000 -0.492667 0.023400
v -0.500000 0.507333 0.023400
v -0.500000 -0.492667 0.023400
v 0.487745 0.495079 0.023400
v 0.487745 -0.480412 0.023400
v -0.487745 0.495079 0.023400
v -0.487745 -0.480412 0.023400
v -0.475524 0.482858 -0.006600
v 0.475524 0.482857 -0.006600
v -0.475524 -0.468191 -0.006600
v 0.475524 -0.468191 -0.006600
vt 0.375000 0.750000
vt 0.625000 0.750000
vt 0.625000 1.000000
vt 0.375000 1.000000
vt 0.375000 0.000000
vt 0.625000 0.000000
vt 0.625000 0.250000
vt 0.375000 0.250000
vt 0.125000 0.500000
vt 0.375000 0.500000
vt 0.125000 0.750000
vt 0.625000 0.500000
vt 0.628064 0.746936
vt 0.871936 0.746936
vt 0.875000 0.750000
vt 0.628064 0.503064
vt 0.871936 0.503064
vt 0.875000 0.500000
vt 0.631119 0.506119
vt 0.868881 0.506119
vt 0.868881 0.743881
vt 0.631119 0.743881
vn 1.0000 -0.0000 0.0000
vn -0.0000 -1.0000 0.0000
vn -0.0000 -0.0000 -1.0000
vn 0.0000 1.0000 0.0000
vn -1.0000 0.0000 0.0000
vn 0.0000 0.0000 1.0000
vn -0.9261 0.0000 0.3773
vn 0.0000 0.9261 0.3773
vn 0.9261 -0.0000 0.3773
vn -0.0000 -0.9261 0.3773
usemtl Material
s off
f 2/1/1 5/2/1 6/3/1 4/4/1
f 4/5/2 6/6/2 8/7/2 3/8/2
f 3/9/3 1/10/3 2/1/3 4/11/3
f 1/10/4 7/12/4 5/2/4 2/1/4
f 3/8/5 8/7/5 7/12/5 1/10/5
f 9/13/6 10/14/6 6/15/6 5/2/6
f 11/16/6 9/13/6 5/2/6 7/12/6
f 10/14/6 12/17/6 8/18/6 6/15/6
f 12/17/6 11/16/6 7/12/6 8/18/6
f 13/19/6 15/20/6 16/21/6 14/22/6
f 10/14/7 9/13/7 14/22/7 16/21/7
f 12/17/8 10/14/8 16/21/8 15/20/8
f 11/16/9 12/17/9 15/20/9 13/19/9
f 9/13/10 11/16/10 13/19/10 14/22/10
o Plane
v -0.495819 -0.496667 -0.000000
v 0.504181 -0.496667 0.000000
v -0.495819 0.503333 -0.000000
v 0.504181 0.503333 0.000000
vt 0.000000 0.000000
vt 1.000000 0.000000
vt 1.000000 1.000000
vt 0.000000 1.000000
vn -0.0000 0.0000 1.0000
usemtl Material.001
s off
f 17/23/11 18/24/11 20/25/11 19/26/11
