# Blender v2.90.0 OBJ File: 'New_Model_v3.blend'
# www.blender.org
mtllib Main.mtl
o Wall_Cube
v 4.830029 3.050000 -7.245044
v 5.000000 0.050000 -7.500000
v 4.830029 3.050000 7.245044
v 5.000000 0.050000 7.500000
v -4.830029 3.050000 -7.245044
v -5.000000 0.050000 -7.500000
v -4.830029 3.050000 7.245044
v -5.000000 0.050000 7.500000
v 5.000000 3.050000 7.500000
v -5.000000 3.050000 7.500000
v 5.000000 3.050000 -7.500000
v -5.000000 3.050000 -7.500000
v 5.000000 3.050000 7.500000
v -5.000000 3.050000 7.500000
v 5.000000 3.050000 -7.500000
v -5.000000 3.050000 -7.500000
v 4.830029 0.050000 -7.245044
v 4.830029 0.050000 7.245044
v -4.830029 0.050000 -7.245044
v -4.830029 0.050000 7.245044
vt 0.375000 0.750000
vt 0.625000 0.750000
vt 0.625000 1.000000
vt 0.375000 1.000000
vt 0.375000 0.000000
vt 0.625000 0.000000
vt 0.625000 0.250000
vt 0.375000 0.250000
vt 0.870751 0.745751
vt 0.629249 0.745751
vt 0.375000 0.500000
vt 0.625000 0.500000
vt 0.625000 0.750000
vt 0.875000 0.750000
vt 0.875000 0.750000
vt 0.625000 0.500000
vt 0.875000 0.500000
vt 0.875000 0.500000
vt 0.629249 0.745751
vt 0.870751 0.745751
vt 0.629249 0.504249
vt 0.870751 0.504249
vt 0.629249 0.504249
vt 0.870751 0.504249
vt 0.870751 0.383499
vt 0.870751 0.866501
vt 0.870751 0.866501
vt 0.870751 0.383499
vn 0.0000 0.0000 1.0000
vn -1.0000 0.0000 0.0000
vn 0.0000 -1.0000 -0.0000
vn 1.0000 0.0000 0.0000
vn 0.0000 0.0000 -1.0000
vn 0.0000 1.0000 0.0000
usemtl Wall_all
s off
f 4/1/1 9/2/1 10/3/1 8/4/1
f 8/5/2 10/6/2 12/7/2 6/8/2
f 8/4/3 20/9/3 18/10/3 4/1/3
f 2/11/4 11/12/4 9/2/4 4/1/4
f 6/8/5 12/7/5 11/12/5 2/11/5
f 13/13/1 14/14/1 10/15/1 9/2/1
f 15/16/1 13/13/1 9/2/1 11/12/1
f 14/14/1 16/17/1 12/18/1 10/15/1
f 16/17/1 15/16/1 11/12/1 12/18/1
f 3/19/6 7/20/6 14/14/6 13/13/6
f 1/21/6 3/19/6 13/13/6 15/16/6
f 7/20/6 5/22/6 16/17/6 14/14/6
f 5/22/6 1/21/6 15/16/6 16/17/6
f 4/1/3 18/10/3 17/23/3 2/11/3
f 2/11/3 17/23/3 19/24/3 6/8/3
f 6/8/3 19/24/3 20/9/3 8/4/3
usemtl Chieu_dai_wall
f 5/25/4 7/26/4 20/27/4 19/28/4
f 3/19/2 1/21/2 17/23/2 18/10/2
usemtl Chieu_rong_wall
f 7/20/5 3/19/5 18/10/5 20/9/5
f 1/21/1 5/22/1 19/24/1 17/23/1
o Floor_Cube.001
v -5.000000 -0.050000 7.500000
v -5.000000 0.050000 7.500000
v -5.000000 -0.050000 -7.500000
v -5.000000 0.050000 -7.500000
v 5.000000 -0.050000 7.500000
v 5.000000 0.050000 7.500000
v 5.000000 -0.050000 -7.500000
v 5.000000 0.050000 -7.500000
vt 0.375000 0.000000
vt 0.625000 0.000000
vt 0.625000 0.250000
vt 0.375000 0.250000
vt 0.625000 0.500000
vt 0.375000 0.500000
vt 0.625000 0.750000
vt 0.375000 0.750000
vt 0.625000 1.000000
vt 0.375000 1.000000
vt 0.125000 0.500000
vt 0.125000 0.750000
vt 0.875000 0.500000
vt 0.875000 0.750000
vn -1.0000 0.0000 0.0000
vn 0.0000 0.0000 -1.0000
vn 1.0000 0.0000 0.0000
vn 0.0000 0.0000 1.0000
vn 0.0000 -1.0000 0.0000
vn 0.0000 1.0000 0.0000
usemtl Floor
s off
f 21/29/7 22/30/7 24/31/7 23/32/7
f 23/32/8 24/31/8 28/33/8 27/34/8
f 27/34/9 28/33/9 26/35/9 25/36/9
f 25/36/10 26/35/10 22/37/10 21/38/10
f 23/39/11 27/34/11 25/36/11 21/40/11
f 28/33/12 24/41/12 22/42/12 26/35/12
o Roof_Cube.002
v -5.000000 3.050000 7.500000
v -5.000000 3.150000 7.500000
v -5.000000 3.050000 -7.500000
v -5.000000 3.150000 -7.500000
v 5.000000 3.050000 7.500000
v 5.000000 3.150000 7.500000
v 5.000000 3.050000 -7.500000
v 5.000000 3.150000 -7.500000
vt 0.375000 0.000000
vt 0.625000 0.000000
vt 0.625000 0.250000
vt 0.375000 0.250000
vt 0.625000 0.500000
vt 0.375000 0.500000
vt 0.625000 0.750000
vt 0.375000 0.750000
vt 0.625000 1.000000
vt 0.375000 1.000000
vt 0.125000 0.500000
vt 0.125000 0.750000
vt 0.875000 0.500000
vt 0.875000 0.750000
vn -1.0000 0.0000 0.0000
vn 0.0000 0.0000 -1.0000
vn 1.0000 0.0000 0.0000
vn 0.0000 0.0000 1.0000
vn 0.0000 -1.0000 0.0000
vn 0.0000 1.0000 0.0000
usemtl Roof
s off
f 29/43/13 30/44/13 32/45/13 31/46/13
f 31/46/14 32/45/14 36/47/14 35/48/14
f 35/48/15 36/47/15 34/49/15 33/50/15
f 33/50/16 34/49/16 30/51/16 29/52/16
f 31/53/17 35/48/17 33/50/17 29/54/17
f 36/47/18 32/55/18 30/56/18 34/49/18
