# Blender v2.90.0 OBJ File: 'Room_Model.blend'
# www.blender.org
mtllib Room_Model.mtl
o Plane
v -3.000000 0.000000 5.000000
v 3.000000 0.000000 5.000000
v -3.000000 0.000000 -5.000000
v 3.000000 0.000000 -5.000000
vt 0.000000 0.000000
vt 1.000000 0.000000
vt 1.000000 1.000000
vt 0.000000 1.000000
vn 0.0000 1.0000 0.0000
usemtl Material.001
s off
f 1/1/1 2/2/1 4/3/1 3/4/1
o Room_Model_Plane.001
v -3.000000 0.000000 5.000000
v 3.000000 0.000000 5.000000
v -3.000000 0.000000 -5.000000
v 3.000000 0.000000 -5.000000
v -2.910000 0.000000 5.000000
v -2.910000 0.000000 -5.000000
v 2.911350 0.000000 5.000000
v 2.911350 0.000000 -5.000000
v -3.000000 0.000000 4.900000
v 3.000000 0.000000 4.900000
v -2.910000 0.000000 4.900000
v 2.911350 0.000000 4.900000
v 3.000000 0.000000 -4.901000
v -2.910000 0.000000 -4.901000
v 2.911350 0.000000 -4.901000
v -3.000000 0.000000 -4.901000
v -3.000000 3.000000 5.000000
v 3.000000 3.000000 5.000000
v -3.000000 3.000000 -5.000000
v 3.000000 3.000000 -5.000000
v -2.910000 3.000000 5.000000
v -2.910000 3.000000 -5.000000
v 2.911350 3.000000 5.000000
v 2.911350 3.000000 -5.000000
v -3.000000 3.000000 4.900000
v 3.000000 3.000000 4.900000
v -2.910000 3.000000 4.900000
v 2.911350 3.000000 4.900000
v 3.000000 3.000000 -4.901000
v -2.910000 3.000000 -4.901000
v 2.911350 3.000000 -4.901000
v -3.000000 3.000000 -4.901000
v -0.726994 0.000000 -5.000000
v -0.726994 0.000000 -4.901000
v -0.726994 3.000000 -5.000000
v -0.726994 3.000000 -4.901000
v 0.728344 0.000000 -5.000000
v 0.728344 0.000000 -4.901000
v 0.728344 3.000000 -5.000000
v 0.728344 3.000000 -4.901000
v -0.726994 2.400000 -5.000000
v -0.726994 2.400000 -4.901000
v 0.728344 2.400000 -5.000000
v 0.728344 2.400000 -4.901000
v 0.728143 3.000000 -5.000000
v 0.728143 3.000000 -4.901000
v 0.728143 2.400000 -5.000000
v 0.728143 2.400000 -4.901000
v -3.000000 2.000000 -4.901000
v -3.000000 2.000000 -5.000000
v 2.911350 2.000000 5.000000
v -2.910000 2.000000 5.000000
v -3.000000 2.000000 5.000000
v -3.000000 2.000000 4.900000
v 2.911350 2.000000 -5.000000
v 3.000000 2.000000 -5.000000
v 3.000000 2.000000 5.000000
v 3.000000 2.000000 -4.901000
v 3.000000 2.000000 4.900000
v -2.910000 2.000000 -5.000000
v -0.726994 2.000000 -5.000000
v 0.728344 2.000000 -5.000000
v -0.726994 2.002057 -5.000000
v -0.726994 2.002057 -4.901000
v 0.728143 2.002057 -5.000000
v 0.728143 2.002057 -4.901000
vt 0.985225 0.990100
vt 0.985225 1.000000
vt 1.000000 1.000000
vt 1.000000 0.990100
vt 0.000000 0.990100
vt 0.000000 1.000000
vt 0.015000 1.000000
vt 0.015000 0.990100
vt 0.621391 0.990100
vt 0.621391 1.000000
vt 0.015000 0.000000
vt 0.015000 0.010000
vt 0.985225 0.010000
vt 0.985225 0.000000
vt 0.000000 0.000000
vt 0.000000 0.010000
vt 1.000000 0.010000
vt 1.000000 0.000000
vt 0.985225 0.990100
vt 1.000000 0.990100
vt 1.000000 1.000000
vt 0.985225 1.000000
vt 0.000000 0.990100
vt 0.015000 0.990100
vt 0.015000 1.000000
vt 0.000000 1.000000
vt 0.621391 0.990100
vt 0.621391 1.000000
vt 0.015000 0.000000
vt 0.985225 0.000000
vt 0.985225 0.010000
vt 0.015000 0.010000
vt 0.000000 0.000000
vt 0.000000 0.010000
vt 1.000000 0.000000
vt 1.000000 0.010000
vt 0.000000 1.000000
vt 0.000000 0.990100
vt 0.015000 0.000000
vt 0.985225 0.000000
vt 0.000000 0.010000
vt 0.000000 0.000000
vt 1.000000 1.000000
vt 0.985225 1.000000
vt 1.000000 0.000000
vt 1.000000 0.990100
vt 1.000000 0.010000
vt 0.015000 1.000000
vt 0.378834 1.000000
vt 0.378834 1.000000
vt 0.378834 1.000000
vt 0.378834 0.990100
vt 0.378834 0.990100
vt 0.621391 1.000000
vt 0.000000 0.000000
vt 0.000000 0.000000
vt 0.000000 0.000000
vt 0.000000 0.000000
vt 0.000000 0.000000
vt 0.000000 0.000000
vt 0.378834 0.990100
vt 0.378834 1.000000
vt 0.000000 0.000000
vt 0.000000 0.000000
vt 0.000000 0.000000
vt 0.000000 0.000000
vt 0.000000 0.000000
vn 0.0000 -1.0000 0.0000
vn 0.0000 1.0000 0.0000
vn -1.0000 0.0000 0.0000
vn 0.0000 0.0000 1.0000
vn 0.0000 0.0000 -1.0000
vn 1.0000 0.0000 0.0000
vn -1.0000 -0.0000 -0.0010
usemtl Material
s off
f 19/5/2 12/6/2 8/7/2 17/8/2
f 20/9/2 7/10/2 10/11/2 18/12/2
f 42/13/2 41/14/2 12/6/2 19/5/2
f 9/15/2 15/16/2 16/17/2 11/18/2
f 5/19/2 13/20/2 15/16/2 9/15/2
f 11/18/2 16/17/2 14/21/2 6/22/2
f 35/23/3 33/24/3 24/25/3 28/26/3
f 13/20/2 20/9/2 18/12/2 15/16/2
f 16/17/2 19/5/2 17/8/2 14/21/2
f 36/27/3 34/28/3 26/29/3 23/30/3
f 44/31/3 35/23/3 28/26/3 43/32/3
f 25/33/3 27/34/3 32/35/3 31/36/3
f 21/37/3 25/33/3 31/36/3 29/38/3
f 27/34/3 22/39/3 30/40/3 32/35/3
f 29/38/3 31/36/3 34/28/3 36/27/3
f 32/35/3 30/40/3 33/24/3 35/23/3
f 54/41/4 53/42/4 36/27/4 23/30/4
f 42/13/5 19/5/5 35/23/5 44/31/5
f 16/17/6 15/16/6 31/36/6 32/35/6
f 56/43/5 55/44/5 27/34/5 25/33/5
f 58/45/4 57/46/4 21/37/4 29/38/4
f 60/47/6 59/48/6 28/26/6 24/25/6
f 55/44/5 61/49/5 22/39/5 27/34/5
f 62/50/7 60/47/7 24/25/7 33/24/7
f 63/51/7 62/50/7 33/24/7 30/40/7
f 53/42/4 58/45/4 29/38/4 36/27/4
f 64/52/6 54/41/6 23/30/6 26/29/6
f 15/16/7 18/12/7 34/28/7 31/36/7
f 61/49/7 63/51/7 30/40/7 22/39/7
f 57/46/5 56/43/5 25/33/5 21/37/5
f 19/5/4 16/17/4 32/35/4 35/23/4
f 65/53/6 64/52/6 26/29/6 39/54/6
f 18/12/2 10/11/2 37/55/2 38/56/2
f 34/28/3 40/57/3 39/54/3 26/29/3
f 18/12/5 38/56/5 40/57/5 34/28/5
f 59/48/6 66/58/6 43/32/6 28/26/6
f 47/59/4 48/60/4 44/31/4 43/32/4
f 46/61/6 52/62/6 70/63/6 68/64/6
f 39/54/3 40/57/3 50/65/3 49/66/3
f 43/32/5 39/67/5 45/68/5 47/59/5
f 52/62/6 46/61/6 40/57/6 50/65/6
f 38/56/7 37/55/7 45/68/7 46/61/7
f 45/68/2 51/69/2 48/60/2 46/61/2
f 42/13/8 52/62/8 51/69/8 48/60/8 47/59/8 41/14/8
f 12/6/6 41/14/6 66/58/6 59/48/6
f 37/55/6 10/11/6 64/52/6 65/53/6
f 5/19/5 9/15/5 56/43/5 57/46/5
f 6/22/7 14/21/7 63/51/7 61/49/7
f 10/11/6 7/10/6 54/41/6 64/52/6
f 20/9/4 13/20/4 58/45/4 53/42/4
f 14/21/7 17/8/7 62/50/7 63/51/7
f 17/8/7 8/7/7 60/47/7 62/50/7
f 11/18/5 6/22/5 61/49/5 55/44/5
f 8/7/6 12/6/6 59/48/6 60/47/6
f 13/20/4 5/19/4 57/46/4 58/45/4
f 9/15/5 11/18/5 55/44/5 56/43/5
f 7/10/4 20/9/4 53/42/4 54/41/4
f 67/70/3 68/64/3 70/63/3 69/71/3
f 45/68/7 46/61/7 68/64/7 67/70/7
f 51/69/5 45/68/5 67/70/5 69/71/5
f 52/62/4 51/69/4 69/71/4 70/63/4
