# Blender v2.90.0 OBJ File: 'New_Model_v3.blend'
# www.blender.org
mtllib New_Model_v3.mtl
o Wall_Cube
v 4.830029 3.050000 -7.245044
v 5.000000 0.050000 -7.500000
v 4.830029 3.050000 7.245044
v 5.000000 0.050000 7.500000
v -4.830029 3.050000 -7.245044
v -5.000000 0.050000 -7.500000
v -4.830029 3.050000 7.245044
v -5.000000 0.050000 7.500000
v 5.000000 3.050000 7.500000
v -5.000000 3.050000 7.500000
v 5.000000 3.050000 -7.500000
v -5.000000 3.050000 -7.500000
v 5.000000 3.050000 7.500000
v -5.000000 3.050000 7.500000
v 5.000000 3.050000 -7.500000
v -5.000000 3.050000 -7.500000
v 4.830029 0.050000 -7.245044
v 4.830029 0.050000 7.245044
v -4.830029 0.050000 -7.245044
v -4.830029 0.050000 7.245044
vt 0.625000 0.500000
vt 0.000000 0.000000
vt 0.000000 0.000000
vt 0.625000 0.750000
vt 0.375000 0.750000
vt 0.625000 0.750000
vt 0.625000 1.000000
vt 0.375000 1.000000
vt 0.375000 0.000000
vt 0.625000 0.000000
vt 0.625000 0.250000
vt 0.375000 0.250000
vt 0.375000 0.500000
vt 0.625000 0.500000
vt 0.875000 0.750000
vt 0.875000 0.750000
vt 0.875000 0.500000
vt 0.875000 0.500000
vt 0.000000 0.000000
vt 0.000000 0.000000
vt 0.000000 0.000000
vt 0.000000 0.000000
vt 0.000000 0.000000
vt 0.000000 0.000000
vn 0.0000 1.0000 0.0000
vn 0.0000 0.0000 1.0000
vn -1.0000 0.0000 0.0000
vn 1.0000 0.0000 0.0000
vn 0.0000 0.0000 -1.0000
usemtl Wall_all
s off
f 15/1/1 1/2/1 3/3/1 13/4/1
f 4/5/2 9/6/2 10/7/2 8/8/2
f 8/9/3 10/10/3 12/11/3 6/12/3
f 2/13/4 11/14/4 9/6/4 4/5/4
f 6/12/5 12/11/5 11/14/5 2/13/5
f 13/4/2 14/15/2 10/16/2 9/6/2
f 15/1/2 13/4/2 9/6/2 11/14/2
f 14/15/2 16/17/2 12/18/2 10/16/2
f 16/17/2 15/1/2 11/14/2 12/18/2
f 16/17/1 14/15/1 7/19/1 5/20/1
f 15/1/1 16/17/1 5/20/1 1/2/1
f 13/4/1 3/3/1 7/19/1 14/15/1
usemtl Chieu_dai_wall
f 5/20/4 7/19/4 20/21/4 19/22/4
f 17/23/3 18/24/3 3/3/3 1/2/3
usemtl Chieu_rong_wall
f 7/19/5 3/3/5 18/24/5 20/21/5
f 1/2/2 5/20/2 19/22/2 17/23/2
l 8 20
l 4 18
l 2 17
l 6 19
o Floor_Cube.001
v -5.000000 -0.050000 7.500000
v -5.000000 0.050000 7.500000
v -5.000000 -0.050000 -7.500000
v -5.000000 0.050000 -7.500000
v 5.000000 -0.050000 7.500000
v 5.000000 0.050000 7.500000
v 5.000000 -0.050000 -7.500000
v 5.000000 0.050000 -7.500000
vt 0.375000 0.000000
vt 0.625000 0.000000
vt 0.625000 0.250000
vt 0.375000 0.250000
vt 0.625000 0.500000
vt 0.375000 0.500000
vt 0.625000 0.750000
vt 0.375000 0.750000
vt 0.625000 1.000000
vt 0.375000 1.000000
vt 0.125000 0.500000
vt 0.125000 0.750000
vt 0.875000 0.500000
vt 0.875000 0.750000
vn -1.0000 0.0000 0.0000
vn 0.0000 0.0000 -1.0000
vn 1.0000 0.0000 0.0000
vn 0.0000 0.0000 1.0000
vn 0.0000 -1.0000 0.0000
vn 0.0000 1.0000 0.0000
usemtl Floor
s off
f 21/25/6 22/26/6 24/27/6 23/28/6
f 23/28/7 24/27/7 28/29/7 27/30/7
f 27/30/8 28/29/8 26/31/8 25/32/8
f 25/32/9 26/31/9 22/33/9 21/34/9
f 23/35/10 27/30/10 25/32/10 21/36/10
f 28/29/11 24/37/11 22/38/11 26/31/11
o Roof_Cube.002
v -5.000000 3.050000 7.500000
v -5.000000 3.150000 7.500000
v -5.000000 3.050000 -7.500000
v -5.000000 3.150000 -7.500000
v 5.000000 3.050000 7.500000
v 5.000000 3.150000 7.500000
v 5.000000 3.050000 -7.500000
v 5.000000 3.150000 -7.500000
vt 0.375000 0.000000
vt 0.625000 0.000000
vt 0.625000 0.250000
vt 0.375000 0.250000
vt 0.625000 0.500000
vt 0.375000 0.500000
vt 0.625000 0.750000
vt 0.375000 0.750000
vt 0.625000 1.000000
vt 0.375000 1.000000
vt 0.125000 0.500000
vt 0.125000 0.750000
vt 0.875000 0.500000
vt 0.875000 0.750000
vn -1.0000 0.0000 0.0000
vn 0.0000 0.0000 -1.0000
vn 1.0000 0.0000 0.0000
vn 0.0000 0.0000 1.0000
vn 0.0000 -1.0000 0.0000
vn 0.0000 1.0000 0.0000
usemtl Roof
s off
f 29/39/12 30/40/12 32/41/12 31/42/12
f 31/42/13 32/41/13 36/43/13 35/44/13
f 35/44/14 36/43/14 34/45/14 33/46/14
f 33/46/15 34/45/15 30/47/15 29/48/15
f 31/49/16 35/44/16 33/46/16 29/50/16
f 36/43/17 32/51/17 30/52/17 34/45/17
o Khung_anh_Cube.003
v 4.834303 1.249153 -2.250016
v 4.834303 1.249153 -4.080750
v 4.834303 2.622203 -2.250016
v 4.834303 2.622203 -4.080750
v 4.742767 1.249153 -4.080750
v 4.742767 2.622203 -4.080750
v 4.742767 1.249153 -2.250016
v 4.742767 2.622203 -2.250016
v 4.742767 1.265979 -4.058315
v 4.742767 2.605377 -4.058315
v 4.742767 1.265979 -2.272451
v 4.742767 2.605377 -2.272451
v 4.788535 1.282759 -2.294825
v 4.788535 1.282759 -4.035941
v 4.788535 2.588597 -2.294825
v 4.788535 2.588597 -4.035941
vt 0.375000 0.750000
vt 0.625000 0.750000
vt 0.625000 1.000000
vt 0.375000 1.000000
vt 0.375000 0.000000
vt 0.625000 0.000000
vt 0.625000 0.250000
vt 0.375000 0.250000
vt 0.125000 0.500000
vt 0.375000 0.500000
vt 0.125000 0.750000
vt 0.625000 0.500000
vt 0.628064 0.746936
vt 0.871936 0.746936
vt 0.875000 0.750000
vt 0.628064 0.503064
vt 0.871936 0.503064
vt 0.875000 0.500000
vt 0.631119 0.506119
vt 0.868881 0.506119
vt 0.868881 0.743881
vt 0.631119 0.743881
vn 0.0000 0.0000 -1.0000
vn 0.0000 1.0000 0.0000
vn 1.0000 -0.0000 0.0000
vn 0.0000 -1.0000 -0.0000
vn 0.0000 -0.0000 1.0000
vn -1.0000 0.0000 0.0000
vn -0.4392 0.0000 0.8984
vn -0.3442 -0.9389 0.0000
vn -0.4392 0.0000 -0.8984
vn -0.3442 0.9389 0.0000
usemtl Material.002
s off
f 38/53/18 41/54/18 42/55/18 40/56/18
f 40/57/19 42/58/19 44/59/19 39/60/19
f 39/61/20 37/62/20 38/53/20 40/63/20
f 37/62/21 43/64/21 41/54/21 38/53/21
f 39/60/22 44/59/22 43/64/22 37/62/22
f 45/65/23 46/66/23 42/67/23 41/54/23
f 47/68/23 45/65/23 41/54/23 43/64/23
f 46/66/23 48/69/23 44/70/23 42/67/23
f 48/69/23 47/68/23 43/64/23 44/70/23
f 49/71/23 51/72/23 52/73/23 50/74/23
f 46/66/24 45/65/24 50/74/24 52/73/24
f 48/69/25 46/66/25 52/73/25 51/72/25
f 47/68/26 48/69/26 51/72/26 49/71/26
f 45/65/27 47/68/27 49/71/27 50/74/27
o Plane
v 4.783958 2.592454 -4.039558
v 4.783958 1.278902 -4.039558
v 4.783958 2.592453 -2.291208
v 4.783958 1.278902 -2.291208
vt 0.000000 0.000000
vt 1.000000 0.000000
vt 1.000000 1.000000
vt 0.000000 1.000000
vn -1.0000 0.0000 0.0000
usemtl None
s off
f 53/75/28 54/76/28 56/77/28 55/78/28
o Khung_anh.001_Cube.004
v 4.856561 1.194517 2.355275
v 4.856561 1.194517 0.524542
v 4.856561 2.567568 2.355275
v 4.856561 2.567568 0.524542
v 4.765024 1.194517 0.524542
v 4.765024 2.567568 0.524542
v 4.765024 1.194517 2.355275
v 4.765024 2.567568 2.355275
v 4.765024 1.211344 0.546977
v 4.765024 2.550741 0.546977
v 4.765024 1.211344 2.332840
v 4.765024 2.550741 2.332840
v 4.810792 1.228124 2.310467
v 4.810792 1.228124 0.569350
v 4.810792 2.533961 2.310467
v 4.810792 2.533961 0.569350
vt 0.375000 0.750000
vt 0.625000 0.750000
vt 0.625000 1.000000
vt 0.375000 1.000000
vt 0.375000 0.000000
vt 0.625000 0.000000
vt 0.625000 0.250000
vt 0.375000 0.250000
vt 0.125000 0.500000
vt 0.375000 0.500000
vt 0.125000 0.750000
vt 0.625000 0.500000
vt 0.628064 0.746936
vt 0.871936 0.746936
vt 0.875000 0.750000
vt 0.628064 0.503064
vt 0.871936 0.503064
vt 0.875000 0.500000
vt 0.631119 0.506119
vt 0.868881 0.506119
vt 0.868881 0.743881
vt 0.631119 0.743881
vn 0.0000 0.0000 -1.0000
vn 0.0000 1.0000 0.0000
vn 1.0000 0.0000 0.0000
vn 0.0000 -1.0000 0.0000
vn 0.0000 -0.0000 1.0000
vn -1.0000 0.0000 0.0000
vn -0.4392 0.0000 0.8984
vn -0.3442 -0.9389 0.0000
vn -0.4392 0.0000 -0.8984
vn -0.3442 0.9389 0.0000
usemtl Material.002
s off
f 58/79/29 61/80/29 62/81/29 60/82/29
f 60/83/30 62/84/30 64/85/30 59/86/30
f 59/87/31 57/88/31 58/79/31 60/89/31
f 57/88/32 63/90/32 61/80/32 58/79/32
f 59/86/33 64/85/33 63/90/33 57/88/33
f 65/91/34 66/92/34 62/93/34 61/80/34
f 67/94/34 65/91/34 61/80/34 63/90/34
f 66/92/34 68/95/34 64/96/34 62/93/34
f 68/95/34 67/94/34 63/90/34 64/96/34
f 69/97/34 71/98/34 72/99/34 70/100/34
f 66/92/35 65/91/35 70/100/35 72/99/35
f 68/95/36 66/92/36 72/99/36 71/98/36
f 67/94/37 68/95/37 71/98/37 69/97/37
f 65/91/38 67/94/38 69/97/38 70/100/38
o Plane.001
v 4.806216 2.537818 0.565733
v 4.806216 1.224267 0.565733
v 4.806216 2.537818 2.314084
v 4.806216 1.224267 2.314084
vt 0.000000 0.000000
vt 1.000000 0.000000
vt 1.000000 1.000000
vt 0.000000 1.000000
vn -1.0000 0.0000 0.0000
usemtl None
s off
f 73/101/39 74/102/39 76/103/39 75/104/39
