# Blender v2.90.0 OBJ File: 'Tu_be.blend'
# www.blender.org
mtllib Tu_be.mtl
o Cube
v 0.400237 0.763573 -0.998123
v 0.400237 0.041367 -0.998123
v 0.400237 0.763573 0.998123
v 0.400237 0.041367 0.998123
v -0.466944 0.763573 -0.889416
v -0.466944 0.041367 -0.889416
v -0.466944 0.763573 0.889416
v -0.466944 0.041367 0.889416
v -0.466944 0.041367 -0.098824
v 0.444708 0.803695 0.000000
v -0.466944 0.763573 -0.098824
v 0.444708 0.001244 0.000000
v -0.044471 0.041367 -0.998123
v -0.044471 0.763573 0.998123
v -0.044471 0.041367 0.998123
v -0.044471 0.763573 -0.998123
v 0.000000 0.001244 0.000000
v 0.000000 0.803695 0.000000
v -0.466944 0.041367 0.395296
v 0.444708 0.803695 0.494120
v -0.466944 0.763573 0.395296
v 0.444708 0.001244 0.494120
v 0.000000 0.001244 0.494120
v 0.000000 0.803695 0.494120
v -0.466944 0.763573 -0.592944
v 0.444708 0.001244 -0.494120
v -0.466944 0.041367 -0.592944
v 0.444708 0.803695 -0.494120
v 0.000000 0.803695 -0.494120
v 0.000000 0.001244 -0.494120
v -0.400237 0.763573 -0.998123
v -0.400237 0.041367 -0.998123
v -0.466944 0.763573 -0.395296
v -0.466944 0.041367 -0.395296
v -0.444708 0.001244 -0.494120
v -0.466944 0.041367 0.098824
v -0.466944 0.763573 0.098824
v -0.444708 0.803695 -0.494120
v -0.466944 0.763573 0.592944
v -0.444708 0.803695 0.000000
v -0.444708 0.001244 0.000000
v -0.466944 0.041367 0.592944
v -0.444708 0.001244 0.494120
v -0.400237 0.041367 0.998123
v -0.400237 0.763573 0.998123
v -0.444708 0.803695 0.494120
v -0.444708 0.001244 0.988240
v -0.444708 0.803695 0.988240
v 0.044471 0.763573 0.998123
v 0.044471 0.041367 0.998123
v 0.444708 0.803695 0.988240
v 0.444708 0.001244 0.988240
v 0.000000 0.001244 0.988240
v 0.000000 0.803695 0.988240
v 0.044471 0.041367 -0.998123
v -0.444708 0.001244 -0.988240
v -0.444708 0.803695 -0.988240
v 0.044471 0.763573 -0.998123
v 0.444708 0.803695 -0.988240
v 0.444708 0.001244 -0.988240
v 0.000000 0.803695 -0.988240
v 0.000000 0.001244 -0.988240
vt 0.750000 0.687500
vt 0.875000 0.687500
vt 0.875000 0.750000
vt 0.750000 0.750000
vt 0.387500 0.887500
vt 0.612500 0.887500
vt 0.612500 0.987500
vt 0.387500 0.987500
vt 0.387500 0.200000
vt 0.612500 0.200000
vt 0.612500 0.237500
vt 0.387500 0.237500
vt 0.250000 0.687500
vt 0.375000 0.687500
vt 0.375000 0.750000
vt 0.250000 0.750000
vt 0.625000 0.687500
vt 0.625000 0.750000
vt 0.387500 0.387500
vt 0.612500 0.387500
vt 0.612500 0.487500
vt 0.387500 0.487500
vt 0.375000 0.562500
vt 0.625000 0.562500
vt 0.625000 0.625000
vt 0.375000 0.625000
vt 0.250000 0.562500
vt 0.250000 0.625000
vt 0.387500 0.075000
vt 0.612500 0.075000
vt 0.612500 0.112500
vt 0.387500 0.112500
vt 0.750000 0.562500
vt 0.875000 0.562500
vt 0.875000 0.625000
vt 0.750000 0.625000
vt 0.125000 0.562500
vt 0.125000 0.625000
vt 0.387500 0.262500
vt 0.612500 0.262500
vt 0.612500 0.362500
vt 0.387500 0.362500
vt 0.125000 0.687500
vt 0.125000 0.750000
vt 0.387500 0.762500
vt 0.612500 0.762500
vt 0.612500 0.862500
vt 0.387500 0.862500
vt 0.387500 0.012500
vt 0.612500 0.012500
vt 0.612500 0.050000
vt 0.387500 0.050000
vt 0.125000 0.500000
vt 0.250000 0.500000
vt 0.625000 0.500000
vt 0.750000 0.500000
vt 0.875000 0.500000
vt 0.375000 0.500000
vt 0.387500 0.137500
vt 0.612500 0.137500
vt 0.612500 0.175000
vt 0.387500 0.175000
vt 0.625000 0.250000
vt 0.375000 0.250000
vt 0.625000 0.187500
vt 0.375000 0.187500
vt 0.375000 0.125000
vt 0.625000 0.125000
vt 0.625000 0.062500
vt 0.375000 0.062500
vt 0.375000 0.000000
vt 0.625000 0.000000
vt 0.625000 1.000000
vt 0.375000 1.000000
vt 0.625000 0.875000
vt 0.375000 0.875000
vt 0.375000 0.375000
vt 0.625000 0.375000
vn 0.0000 1.0000 0.0000
vn 0.0000 0.0000 1.0000
vn -1.0000 0.0000 0.0000
vn 0.0000 -1.0000 0.0000
vn 1.0000 0.0000 0.0000
vn 0.0000 0.0000 -1.0000
vn -0.9756 0.0000 -0.2195
vn -0.8747 0.4847 0.0000
vn -0.8747 -0.4847 0.0000
vn -0.9756 0.0000 0.2195
vn -0.2169 0.0000 0.9762
vn 0.0000 0.2392 0.9710
vn 0.0000 -0.2392 0.9710
vn 0.2169 0.0000 0.9762
vn 0.0000 -0.2392 -0.9710
vn -0.2169 0.0000 -0.9762
vn 0.0000 0.2392 -0.9710
vn 0.2169 0.0000 -0.9762
usemtl Material
s off
f 24/1/1 46/2/1 48/3/1 54/4/1
f 15/5/2 14/6/2 45/7/2 44/8/2
f 27/9/3 25/10/3 5/11/3 6/12/3
f 23/13/4 22/14/4 52/15/4 53/16/4
f 22/14/5 20/17/5 51/18/5 52/15/5
f 55/19/6 58/20/6 1/21/6 2/22/6
f 26/23/5 28/24/5 10/25/5 12/26/5
f 30/27/4 26/23/4 12/26/4 17/28/4
f 19/29/3 21/30/3 37/31/3 36/32/3
f 29/33/1 38/34/1 40/35/1 18/36/1
f 28/24/1 29/33/1 18/36/1 10/25/1
f 35/37/4 30/27/4 17/28/4 41/38/4
f 32/39/6 31/40/6 16/41/6 13/42/6
f 43/43/4 23/13/4 53/16/4 47/44/4
f 4/45/2 3/46/2 49/47/2 50/48/2
f 20/17/1 24/1/1 54/4/1 51/18/1
f 10/25/1 18/36/1 24/1/1 20/17/1
f 41/38/4 17/28/4 23/13/4 43/43/4
f 8/49/3 7/50/3 39/51/3 42/52/3
f 12/26/5 10/25/5 20/17/5 22/14/5
f 17/28/4 12/26/4 22/14/4 23/13/4
f 18/36/1 40/35/1 46/2/1 24/1/1
f 56/53/4 62/54/4 30/27/4 35/37/4
f 59/55/1 61/56/1 29/33/1 28/24/1
f 61/56/1 57/57/1 38/34/1 29/33/1
f 62/54/4 60/58/4 26/23/4 30/27/4
f 60/58/5 59/55/5 28/24/5 26/23/5
f 9/59/3 11/60/3 33/61/3 34/62/3
f 6/12/7 5/11/7 57/63/7 56/64/7
f 5/11/8 25/10/8 38/65/8 57/63/8
f 27/9/9 6/12/9 56/64/9 35/66/9
f 25/10/10 27/9/10 35/66/10 38/65/10
f 9/59/9 34/62/9 35/66/9 41/67/9
f 11/60/10 9/59/10 41/67/10 40/68/10
f 33/61/8 11/60/8 40/68/8 38/65/8
f 34/62/7 33/61/7 38/65/7 35/66/7
f 37/31/8 21/30/8 46/69/8 40/68/8
f 36/32/7 37/31/7 40/68/7 41/67/7
f 19/29/9 36/32/9 41/67/9 43/70/9
f 21/30/10 19/29/10 43/70/10 46/69/10
f 8/49/9 42/52/9 43/70/9 47/71/9
f 7/50/10 8/49/10 47/71/10 48/72/10
f 39/51/8 7/50/8 48/72/8 46/69/8
f 42/52/7 39/51/7 46/69/7 43/70/7
f 44/8/11 45/7/11 48/73/11 47/74/11
f 45/7/12 14/6/12 54/75/12 48/73/12
f 15/5/13 44/8/13 47/74/13 53/76/13
f 14/6/14 15/5/14 53/76/14 54/75/14
f 3/46/14 4/45/14 52/15/14 51/18/14
f 4/45/13 50/48/13 53/76/13 52/15/13
f 49/47/12 3/46/12 51/18/12 54/75/12
f 50/48/11 49/47/11 54/75/11 53/76/11
f 32/39/15 13/42/15 62/77/15 56/64/15
f 31/40/16 32/39/16 56/64/16 57/63/16
f 16/41/17 31/40/17 57/63/17 61/78/17
f 13/42/18 16/41/18 61/78/18 62/77/18
f 2/22/18 1/21/18 59/55/18 60/58/18
f 1/21/17 58/20/17 61/78/17 59/55/17
f 55/19/15 2/22/15 60/58/15 62/77/15
f 58/20/16 55/19/16 62/77/16 61/78/16
o Cube.001
v -0.474532 0.804118 1.003064
v -0.474532 0.823882 1.003064
v -0.474532 0.804118 -1.003064
v -0.474532 0.823882 -1.003064
v 0.444532 0.804118 1.003064
v 0.444532 0.823882 1.003064
v 0.444532 0.804118 -1.003064
v 0.444532 0.823882 -1.003064
vt 0.375000 0.000000
vt 0.625000 0.000000
vt 0.625000 0.250000
vt 0.375000 0.250000
vt 0.625000 0.500000
vt 0.375000 0.500000
vt 0.625000 0.750000
vt 0.375000 0.750000
vt 0.625000 1.000000
vt 0.375000 1.000000
vt 0.125000 0.500000
vt 0.125000 0.750000
vt 0.875000 0.500000
vt 0.875000 0.750000
vn -1.0000 0.0000 0.0000
vn 0.0000 0.0000 -1.0000
vn 1.0000 0.0000 0.0000
vn 0.0000 0.0000 1.0000
vn 0.0000 -1.0000 0.0000
vn 0.0000 1.0000 0.0000
usemtl Material.002
s off
f 63/79/19 64/80/19 66/81/19 65/82/19
f 65/82/20 66/81/20 70/83/20 69/84/20
f 69/84/21 70/83/21 68/85/21 67/86/21
f 67/86/22 68/85/22 64/87/22 63/88/22
f 65/89/23 69/84/23 67/86/23 63/90/23
f 70/83/24 66/91/24 64/92/24 68/85/24
o Cube.002
v -0.452044 0.823870 0.995652
v -0.452044 1.222130 0.995652
v -0.452044 0.823870 -0.995652
v -0.452044 1.222130 -0.995652
v 0.444044 0.823870 0.995652
v 0.444044 1.222130 0.995652
v 0.444044 0.823870 -0.995652
v 0.444044 1.222130 -0.995652
v -0.445373 0.826834 0.980829
v -0.445373 1.219166 0.980829
v -0.445373 0.826834 -0.980829
v -0.445373 1.219166 -0.980829
v 0.437373 0.826834 0.980829
v 0.437373 1.219166 0.980829
v 0.437373 0.826834 -0.980829
v 0.437373 1.219166 -0.980829
vt 0.375000 0.000000
vt 0.625000 0.000000
vt 0.625000 0.250000
vt 0.375000 0.250000
vt 0.625000 0.500000
vt 0.375000 0.500000
vt 0.625000 0.750000
vt 0.375000 0.750000
vt 0.625000 1.000000
vt 0.375000 1.000000
vt 0.125000 0.500000
vt 0.125000 0.750000
vt 0.875000 0.500000
vt 0.875000 0.750000
vt 0.375000 0.000000
vt 0.375000 0.250000
vt 0.625000 0.250000
vt 0.625000 0.000000
vt 0.375000 0.500000
vt 0.625000 0.500000
vt 0.375000 0.750000
vt 0.625000 0.750000
vt 0.375000 1.000000
vt 0.625000 1.000000
vt 0.125000 0.500000
vt 0.125000 0.750000
vt 0.875000 0.750000
vt 0.875000 0.500000
vn -1.0000 0.0000 0.0000
vn 0.0000 0.0000 -1.0000
vn 1.0000 0.0000 0.0000
vn 0.0000 0.0000 1.0000
vn 0.0000 -1.0000 0.0000
vn 0.0000 1.0000 0.0000
usemtl Transparent
s off
f 71/93/25 72/94/25 74/95/25 73/96/25
f 73/96/26 74/95/26 78/97/26 77/98/26
f 77/98/27 78/97/27 76/99/27 75/100/27
f 75/100/28 76/99/28 72/101/28 71/102/28
f 73/103/29 77/98/29 75/100/29 71/104/29
f 78/97/30 74/105/30 72/106/30 76/99/30
f 79/107/27 81/108/27 82/109/27 80/110/27
f 81/108/28 85/111/28 86/112/28 82/109/28
f 85/111/25 83/113/25 84/114/25 86/112/25
f 83/113/26 79/115/26 80/116/26 84/114/26
f 81/117/30 79/118/30 83/113/30 85/111/30
f 86/112/29 84/114/29 80/119/29 82/120/29
